<?xml version="1.0" standalone="no"?>
<!DOCTYPE svg PUBLIC "-//W3C//DTD SVG 20010904//EN"
 "http://www.w3.org/TR/2001/REC-SVG-20010904/DTD/svg10.dtd">
<svg version="1.0" xmlns="http://www.w3.org/2000/svg"
 width="500.000000pt" height="500.000000pt" viewBox="0 0 500.000000 500.000000"
 preserveAspectRatio="xMidYMid meet">

<g transform="translate(0.000000,500.000000) scale(0.100000,-0.100000)"
fill="#ef4444" stroke="none">
<path d="M2270 4449 c-810 -91 -1497 -682 -1700 -1461 -124 -476 -78 -950 134
-1385 70 -144 97 -182 39 -56 -219 480 -247 1016 -77 1520 37 112 152 343 222
448 308 462 797 774 1335 850 131 19 403 19 534 0 538 -76 1027 -388 1335
-850 70 -105 185 -336 222 -448 76 -226 109 -425 109 -662 0 -308 -60 -582
-186 -857 -57 -124 -32 -90 38 53 448 908 130 2022 -730 2556 -377 235 -840
341 -1275 292z"/>
<path d="M2372 3994 c-403 -67 -733 -368 -842 -765 -96 -351 8 -753 260 -1009
60 -61 178 -156 184 -148 38 49 266 388 266 395 0 5 -21 25 -46 44 -80 59
-150 162 -190 279 -26 76 -26 253 0 330 44 131 121 235 227 305 296 197 681
91 835 -229 18 -38 38 -94 45 -125 16 -80 6 -231 -22 -311 -19 -58 -34 -78
-130 -176 l-109 -110 0 -267 0 -267 -653 0 -652 0 -295 -295 -295 -295 950 0
950 0 293 293 292 292 0 218 0 217 54 113 c30 61 64 146 75 187 100 370 -2
762 -268 1028 -245 245 -587 353 -929 296z"/>
</g>
</svg>
